<?xml version="1.0" standalone="no"?>
<!DOCTYPE svg PUBLIC "-//W3C//DTD SVG 20010904//EN"
 "http://www.w3.org/TR/2001/REC-SVG-20010904/DTD/svg10.dtd">
<svg version="1.0" xmlns="http://www.w3.org/2000/svg"
 width="64.000000pt" height="64.000000pt" viewBox="0 0 64.000000 64.000000"
 preserveAspectRatio="xMidYMid meet">

<g transform="translate(0.000000,64.000000) scale(0.100000,-0.100000)"
fill="#000000" stroke="none">
<path d="M325 610 c-33 -35 -42 -36 -67 -13 -17 15 -20 15 -46 -10 -22 -21
-38 -27 -74 -27 -29 0 -53 -6 -62 -16 -21 -21 -20 -69 2 -91 14 -14 24 -57 41
-189 12 -94 19 -184 15 -199 -5 -18 -2 -30 7 -36 18 -11 320 -11 338 0 9 6 12
18 7 37 -4 15 3 104 15 198 17 134 26 175 40 189 23 22 25 70 3 91 -9 10 -33
16 -62 16 -41 0 -51 5 -87 40 l-41 40 -29 -30z m60 -20 l29 -30 -64 0 -64 0
29 30 c16 17 32 30 35 30 3 0 19 -13 35 -30z m-127 -2 c20 -20 14 -28 -25 -28
-35 0 -36 0 -18 20 21 23 27 24 43 8z m282 -88 l0 -40 -230 0 -230 0 0 40 0
40 230 0 230 0 0 -40z m-368 -82 l-22 -22 -22 22 -22 22 44 0 44 0 -22 -22z
m108 -3 l24 -25 -30 -33 -29 -32 33 30 32 29 38 -37 37 -37 -38 -37 -37 -38
-72 70 c-40 39 -59 55 -43 37 l29 -32 -39 -40 c-22 -22 -42 -40 -46 -40 -3 0
-9 28 -13 62 l-6 62 42 43 c50 50 83 56 118 18z m52 3 l-22 -22 -22 22 -22 22
44 0 44 0 -22 -22z m102 5 c20 -17 20 -17 7 0 -12 16 -10 17 30 17 l44 0 -63
-62 -62 -63 -37 37 -37 37 24 26 c27 29 65 32 94 8z m-299 -31 c0 -18 -20 -15
-23 4 -3 10 1 15 10 12 7 -3 13 -10 13 -16z m375 4 c0 -8 -4 -17 -9 -21 -12
-7 -24 12 -16 25 9 15 25 12 25 -4z m-21 -30 c8 -9 10 -31 5 -64 -6 -46 -13
-56 -95 -138 l-89 -89 -37 38 -38 37 37 37 37 37 28 -24 28 -25 -25 28 -24 28
37 36 37 37 32 -29 33 -30 -29 33 -30 32 34 35 c38 39 43 41 59 21z m-219
-101 l34 -35 -37 -37 -37 -37 -32 29 -33 30 29 -32 30 -33 -30 -32 -29 -33 33
30 32 29 33 -32 32 -32 -60 0 c-33 0 -65 4 -71 8 -7 4 -15 33 -19 65 l-8 59
44 44 c24 24 46 44 49 44 3 0 21 -16 40 -35z m205 -102 c-4 -38 -12 -71 -19
-75 -6 -4 -38 -8 -71 -8 l-60 0 32 32 33 32 32 -29 33 -30 -29 33 -30 32 39
40 c22 22 41 40 43 40 2 0 1 -30 -3 -67z m5 -113 c0 -6 -63 -10 -170 -10 -107
0 -170 4 -170 10 0 6 63 10 170 10 107 0 170 -4 170 -10z"/>
<path d="M100 500 c0 -5 5 -10 10 -10 6 0 10 5 10 10 0 6 -4 10 -10 10 -5 0
-10 -4 -10 -10z"/>
<path d="M150 500 c0 -5 5 -10 10 -10 6 0 10 5 10 10 0 6 -4 10 -10 10 -5 0
-10 -4 -10 -10z"/>
<path d="M200 500 c0 -5 5 -10 10 -10 6 0 10 5 10 10 0 6 -4 10 -10 10 -5 0
-10 -4 -10 -10z"/>
<path d="M250 500 c0 -5 5 -10 10 -10 6 0 10 5 10 10 0 6 -4 10 -10 10 -5 0
-10 -4 -10 -10z"/>
<path d="M300 500 c0 -5 5 -10 10 -10 6 0 10 5 10 10 0 6 -4 10 -10 10 -5 0
-10 -4 -10 -10z"/>
<path d="M350 500 c0 -5 5 -10 10 -10 6 0 10 5 10 10 0 6 -4 10 -10 10 -5 0
-10 -4 -10 -10z"/>
<path d="M400 500 c0 -5 5 -10 10 -10 6 0 10 5 10 10 0 6 -4 10 -10 10 -5 0
-10 -4 -10 -10z"/>
<path d="M450 500 c0 -5 5 -10 10 -10 6 0 10 5 10 10 0 6 -4 10 -10 10 -5 0
-10 -4 -10 -10z"/>
<path d="M500 500 c0 -5 5 -10 10 -10 6 0 10 5 10 10 0 6 -4 10 -10 10 -5 0
-10 -4 -10 -10z"/>
</g>
</svg>
